# AST/ASF file generated using VICON BodyLanguage
# -----------------------------------------------
:version 1.10
:name VICON
:units
  mass 1.0
  length 0.45
  angle deg
:documentation
   .ast/.asf automatically generated from VICON data using
   VICON BodyBuilder and BodyLanguage model FoxedUp or BRILLIANT.MOD
:root
   order TX TY TZ RX RY RZ
   axis XYZ
   position 0 0 0  
   orientation 0 0 0 
:bonedata
  begin
     id 1 
     name lhipjoint
     direction 0.661853 -0.702389 0.261917 
     length 2.64193 
     axis 0 0 0  XYZ
  end
  begin
     id 2 
     name lfemur
     direction 0.34202 -0.939693 0  
     length 7.01722  
     axis 0 0 20  XYZ
    dof rx ry rz
    limits (-160.0 20.0)
           (-70.0 70.0)
           (-60.0 70.0)
  end
  begin
     id 3 
     name ltibia
     direction 0.34202 -0.939693 0   
     length 8.25008   
     axis 0 0 20   XYZ
    dof rx
    limits (-10.0 170.0)
  end
  begin
     id 4 
     name lfoot
     direction 0.0709916 -0.195048 0.978221   
     length 2.31941   
     axis -90 7.62852e-016 20   XYZ
    dof rx rz
    limits (-45.0 90.0)
           (-70.0 20.0)
  end
  begin
     id 5 
     name ltoes
     direction 1.53586e-011 -4.22017e-011 1   
     length 1.16486   
     axis -90 7.62852e-016 20   XYZ
    dof rx
    limits (-90.0 20.0)
  end
  begin
     id 6 
     name rhipjoint
     direction -0.638185 -0.721362 0.268992   
     length 2.57244  
     axis 0 0 0  XYZ 
  end
  begin
     id 7 
     name rfemur
     direction -0.34202 -0.939693 0   
     length 7.07017   
     axis 0 0 -20   XYZ
    dof rx ry rz
    limits (-160.0 20.0)
           (-70.0 70.0)
           (-70.0 60.0)
  end
  begin
     id 8 
     name rtibia
     direction -0.34202 -0.939693 0   
     length 8.20386   
     axis 0 0 -20   XYZ
    dof rx
    limits (-10.0 170.0)
 end
 begin
     id 9 
     name rfoot
     direction -0.0822429 -0.225961 0.970658   
     length 2.32215  
     axis -90 -7.62852e-016 -20   XYZ
    dof rx rz
    limits (-45.0 90.0)
           (-20.0 70.0)
  end
  begin
     id 10 
     name rtoes
     direction -1.53597e-011 -4.21689e-011 1   
     length 1.16333   
     axis -90 -7.62852e-016 -20   XYZ
    dof rx
    limits (-90.0 20.0)
  end
  begin
     id 11 
     name lowerback
     direction -0.0131557 0.998589 -0.0514484   
     length 2.14993   
     axis 0 0 0   XYZ
    dof rx ry rz
    limits (-20.0 45.0)
           (-30.0 30.0)
           (-30.0 30.0)
  end
  begin
     id 12 
     name upperback
     direction -0.000776481 0.999993 0.00352685   
     length 2.15301   
     axis 0 0 0   XYZ
    dof rx ry rz
    limits (-20.0 45.0)
           (-30.0 30.0)
           (-30.0 30.0)
  end
  begin
     id 13 
     name thorax
     direction 0.00438186 0.999609 0.0276143   
     length 2.15424   
     axis 0 0 0   XYZ
    dof rx ry rz
    limits (-20.0 45.0)
           (-30.0 30.0)
           (-30.0 30.0)
  end
  begin
     id 14 
     name lowerneck
     direction -0.0488006 0.998094 0.0377807   
     length 1.90481   
     axis 0 0 0   XYZ
    dof rx ry rz
    limits (-20.0 45.0)
           (-30.0 30.0)
           (-30.0 30.0)
  end
  begin
     id 15 
     name upperneck
     direction 0.0443769 0.990702 -0.12861   
     length 1.91305   
     axis 0 0 0   XYZ
    dof rx ry rz
    limits (-20.0 45.0)
           (-30.0 30.0)
           (-30.0 30.0)
  end
  begin
     id 16
     name head
     direction 0.0165599 0.998647 -0.0492982  
     length 1.92369  
     axis 0 0 0   XYZ
    dof rx ry rz
    limits (-20.0 45.0)
           (-30.0 30.0)
           (-30.0 30.0)
  end
  begin
     id 17 
     name lclavicle
     direction 0.911936 0.410197 -0.0105506  
     length 3.52622  
     axis 0 0 0   XYZ
    dof ry rz
    limits (-20.0 10.0)
           (0.0 20.0)
  end
  begin
     id 18 
     name lhumerus
     direction 1 -4.48974e-011 -2.48591e-028   
     length 5.47651   
     axis 180 -30 -90   XYZ
    dof rx ry rz
    limits (-60.0 90.0)
           (-90.0 90.0)
           (-90.0 90.0)
  end
  begin
     id 19
     name lradius
     direction 1 -4.48938e-011 -4.40099e-027   
     length 3.09058   
     axis 180 -30 -90   XYZ
    dof rx
    limits (-10.0 170.0)
  end
  begin
     id 20
     name lwrist
     direction 1 -4.49042e-011 -2.99852e-027   
     length 1.54529   
     axis 1.95339e-015 90 90   XYZ
    dof ry
    limits (-180.0 0.0)
 end
  begin
     id 21 
     name lhand
     direction 1 -4.48815e-011 -5.98193e-027   
     length 0.771611   
     axis 3.82337e-015 90 90   XYZ
    dof rx rz
    limits (-90.0 90.0)
           (-45.0 45.0)
  end
  begin
     id 22 
     name lfingers
     direction 1 -4.49034e-011 -1.1993e-026   
     length 0.622093   
     axis 7.64668e-015 90 90   XYZ
    dof rx
    limits (0.0 90.0)
  end
  begin
     id 23
     name lthumb
     direction 0.707107 -6.34867e-011 0.707107   
     length 0.893204   
     axis -90 45 -1.62303e-014   XYZ
    dof rx rz
    limits (-45.0 45.0)
           (-45.0 45.0)
  end
  begin
     id 24 
     name rclavicle
     direction -0.93442 0.355634 -0.0195692   
     length 3.62463  
     axis 0 0 0   XYZ 
    dof ry rz
    limits (-10.0 20.0)
           (-20.0 0.0)
  end
  begin
     id 25 
     name rhumerus
     direction -1 -4.48957e-011 -1.19147e-027  
     length 5.14182   
     axis 180 30 90   XYZ
    dof rx ry rz
    limits (-90.0 60.0)
           (-90.0 90.0)
           (-90.0 90.0)
  end
  begin
     id 26 
     name rradius
     direction -1 -4.48952e-011 -3.81062e-027   
     length 3.35565   
     axis 180 30 90   XYZ
    dof rx
    limits (-10.0 170.0)
  end
  begin
     id 27 
     name rwrist
     direction -1 -4.48973e-011 -2.99621e-027   
     length 1.67782   
     axis 1.95339e-015 -90 -90   XYZ
    dof ry
    limits (-180.0 0.0)
  end
  begin
     id 28
     name rhand
     direction -1 -4.48895e-011 -5.98727e-027   
     length 0.801042   
     axis 3.82337e-015 -90 -90   XYZ
    dof rx rz
    limits (-90.0 90.0)
           (-45.0 45.0)
  end
  begin
     id 29
     name rfingers
     direction -1 -4.49065e-011 -1.19972e-026   
     length 0.645821   
     axis 7.64668e-015 -90 -90   XYZ
    dof rx
    limits (0.0 90.0)
  end
  begin
     id 30
     name rthumb
     direction -0.707107 -6.34957e-011 0.707107   
     length 0.927273   
     axis -90 -45 1.62303e-014   XYZ
    dof rx rz
    limits (-45.0 45.0)
           (-45.0 45.0)
  end
:hierarchy
  begin
    root lhipjoint rhipjoint lowerback
    lhipjoint lfemur
    lfemur ltibia
    ltibia lfoot
    lfoot ltoes
    rhipjoint rfemur
    rfemur rtibia
    rtibia rfoot
    rfoot rtoes
    lowerback upperback
    upperback thorax
    thorax lowerneck lclavicle rclavicle
    lowerneck upperneck
    upperneck head
    lclavicle lhumerus
    lhumerus lradius
    lradius lwrist
    lwrist lhand lthumb
    lhand lfingers
    rclavicle rhumerus
    rhumerus rradius
    rradius rwrist
    rwrist rhand rthumb
    rhand rfingers
  end

#!OML:ASF E:\Style4\Style4.ASF
:FULLY-SPECIFIED
:DEGREES
72
root -0.0481164 18.1219 0.170723 4.39796 -4.66219 3.31561
lowerback 0.385096 2.54591 -1.49744
upperback -1.56323 3.36586 -0.670127
thorax -1.86357 1.69862 0.0817878
lowerneck 2.68787 -3.23221 -6.41248
upperneck 5.63356 -4.54056 3.36319
head 1.55951 -2.35103 2.1402
rclavicle -5.52249e-015 -7.95139e-016
rhumerus -83.0048 49.7494 -114.294
rradius 89.0073
rwrist -25.8425
rhand 3.20033 26.4669
rfingers 7.12502
rthumb 28.652 -1.3562
lclavicle -5.52249e-015 -7.95139e-016
lhumerus -86.2556 -54.0619 113.889
lradius 97.3702
lwrist 2.2853
lhand -5.17225 6.4194
lfingers 7.12502
lthumb 20.6279 35.3433
rfemur -5.54432 9.18283 15.0568
rtibia 18.8042
rfoot -16.0886 -15.0338
rtoes -13.8146
lfemur 3.6849 -3.41833 -23.0972
ltibia 4.5177
lfoot -13.3011 14.9998
ltoes -15.7988
73
root -0.044883 18.1209 0.174032 4.38078 -4.66489 3.31208
lowerback 0.385403 2.54062 -1.47222
upperback -1.55703 3.3592 -0.671169
thorax -1.85574 1.69486 0.0670493
lowerneck 2.69912 -3.22022 -6.43057
upperneck 5.63357 -4.52729 3.40441
head 1.55866 -2.34438 2.15747
rclavicle 6.96927e-014 0
rhumerus -83.0093 49.74 -114.295
rradius 89.0013
rwrist -25.8211
rhand 3.1507 26.4799
rfingers 7.12502
rthumb 28.6046 -1.35112
lclavicle 6.96927e-014 0
lhumerus -86.2582 -54.0569 113.848
lradius 97.4042
lwrist 2.1665
lhand -5.04504 6.45428
lfingers 7.12502
lthumb 20.7501 35.3649
rfemur -5.53599 9.15262 15.0504
rtibia 18.8555
rfoot -16.0862 -15.0226
rtoes -13.9356
lfemur 3.79623 -3.41392 -23.1088
ltibia 4.37597
lfoot -13.1753 15.0107
ltoes -15.9684
74
root -0.0422352 18.1207 0.175118 4.38246 -4.64212 3.36809
lowerback 0.409338 2.52557 -1.51739
upperback -1.57498 3.33753 -0.68663
thorax -1.88902 1.68478 0.0750828
lowerneck 2.76668 -3.22368 -6.40805
upperneck 5.58231 -4.53413 3.38002
head 1.52924 -2.34766 2.14651
rclavicle 4.45153e-014 -1.98785e-015
rhumerus -83.0347 49.7348 -114.318
rradius 89.0152
rwrist -25.8464
rhand 3.15849 26.4774
rfingers 7.12502
rthumb 28.612 -1.35241
lclavicle 4.45153e-014 -1.98785e-015
lhumerus -86.286 -54.0106 113.852
lradius 97.3492
lwrist 2.20904
lhand -5.17598 6.20049
lfingers 7.12502
lthumb 20.6243 35.1248
rfemur -5.54398 9.0949 14.9792
rtibia 18.8773
rfoot -16.0568 -15.0271
rtoes -13.9769
lfemur 3.80288 -3.44079 -23.1748
ltibia 4.36297
lfoot -13.2781 15.0189
ltoes -15.9617
75
root -0.0406291 18.1204 0.175656 4.38472 -4.634 3.36909
lowerback 0.444841 2.52627 -1.50419
upperback -1.59344 3.3376 -0.69154
thorax -1.92684 1.6848 0.0604042
lowerneck 2.82979 -3.24118 -6.36683
upperneck 5.53039 -4.55775 3.32322
head 1.49975 -2.35925 2.12122
rclavicle 3.77318e-014 5.1684e-015
rhumerus -83.0322 49.6915 -114.319
rradius 89.0064
rwrist -25.829
rhand 3.19159 26.4838
rfingers 7.12502
rthumb 28.6436 -1.34068
lclavicle 3.77318e-014 5.1684e-015
lhumerus -86.3276 -54.011 113.906
lradius 97.2747
lwrist 2.26512
lhand -5.37576 5.96554
lfingers 7.12502
lthumb 20.4323 34.9105
rfemur -5.54512 9.04268 14.9714
rtibia 18.8651
rfoot -16.054 -14.9514
rtoes -13.9803
lfemur 3.70505 -3.4489 -23.1845
ltibia 4.53326
lfoot -13.4137 15.0685
ltoes -16.2524
76
root -0.0389522 18.1206 0.176382 4.37922 -4.64981 3.31762
lowerback 0.472688 2.53805 -1.43139
upperback -1.60503 3.35378 -0.686314
thorax -1.95066 1.69195 0.0231889
lowerneck 2.84755 -3.2459 -6.40957
upperneck 5.53933 -4.56783 3.36867
head 1.5028 -2.36485 2.14412
rclavicle -1.758e-014 1.51076e-014
rhumerus -83.0275 49.6481 -114.297
rradius 89.0348
rwrist -25.8132
rhand 3.28827 26.4266
rfingers 7.12502
rthumb 28.736 -1.38221
lclavicle -1.758e-014 1.51076e-014
lhumerus -86.3316 -54.0176 113.915
lradius 97.2276
lwrist 2.22203
lhand -5.35583 5.875
lfingers 7.12502
lthumb 20.4515 34.8179
rfemur -5.51585 9.05417 15.0234
rtibia 18.82
rfoot -16.0704 -14.9177
rtoes -13.8906
lfemur 3.52996 -3.42866 -23.1439
ltibia 4.86354
lfoot -13.4565 15.0609
ltoes -16.411
77
root -0.0379146 18.1216 0.174766 4.40394 -4.63669 3.24768
lowerback 0.493396 2.53 -1.36453
upperback -1.62556 3.34374 -0.666974
thorax -1.98052 1.68625 0.00437712
lowerneck 2.83225 -3.23641 -6.43099
upperneck 5.57609 -4.55662 3.40679
head 1.51856 -2.3595 2.16035
rclavicle -1.15606e-014 -3.18055e-015
rhumerus -83.0408 49.6508 -114.29
rradius 89.0674
rwrist -25.8127
rhand 3.38319 26.3742
rfingers 7.12502
rthumb 28.8267 -1.4192
lclavicle -1.15606e-014 -3.18055e-015
lhumerus -86.3324 -53.9835 113.902
lradius 97.2123
lwrist 2.2005
lhand -5.26483 5.77584
lfingers 7.12502
lthumb 20.5389 34.7094
rfemur -5.51005 9.11537 15.1046
rtibia 18.7607
rfoot -16.0599 -14.9754
rtoes -13.5633
lfemur 3.29123 -3.43777 -23.0694
ltibia 5.23971
lfoot -13.5626 14.9997
ltoes -16.2343
78
root -0.0373678 18.1226 0.173053 4.43977 -4.62218 3.12116
lowerback 0.507565 2.52262 -1.2432
upperback -1.64187 3.33594 -0.631645
thorax -2.0002 1.68088 -0.0279524
lowerneck 2.81345 -3.22764 -6.40474
upperneck 5.60331 -4.54307 3.39216
head 1.52862 -2.35251 2.15049
rclavicle 5.2181e-016 1.74931e-014
rhumerus -83.0184 49.6481 -114.28
rradius 89.0645
rwrist -25.7817
rhand 3.39134 26.3568
rfingers 7.12502
rthumb 28.8344 -1.43527
lclavicle 5.2181e-016 1.74931e-014
lhumerus -86.3686 -53.9776 113.961
lradius 97.1862
lwrist 2.2096
lhand -5.31932 5.76796
lfingers 7.12502
lthumb 20.4866 34.7071
rfemur -5.51332 9.19806 15.2478
rtibia 18.7041
rfoot -16.0636 -15.0257
rtoes -13.4643
lfemur 3.05808 -3.44464 -22.9188
ltibia 5.5952
lfoot -13.7937 14.9874
ltoes -16.1328
